<svg xmlns="http://www.w3.org/2000/svg" viewBox="0 0 256 256" role="img" aria-labelledby="title desc">
  <title id="title">Focus L-AIci mark</title>
  <desc id="desc">A geometric focus lens with circuitry accents.</desc>
  <defs>
    <linearGradient id="focusGradient" x1="32" y1="32" x2="224" y2="224" gradientUnits="userSpaceOnUse">
      <stop offset="0" stop-color="#7dd3fc" />
      <stop offset="0.55" stop-color="#3b82f6" />
      <stop offset="1" stop-color="#0f172a" />
    </linearGradient>
  </defs>
  <rect width="256" height="256" rx="52" fill="#081120" />
  <path d="M52 70h34l20 20m78-20h20v20m0 76v20h-20m-112 0H52v-34l20-20" fill="none" stroke="#93c5fd" stroke-linecap="round" stroke-linejoin="round" stroke-width="12" opacity="0.9" />
  <circle cx="128" cy="128" r="76" fill="none" stroke="url(#focusGradient)" stroke-width="16" />
  <circle cx="128" cy="128" r="43" fill="none" stroke="#dbeafe" stroke-width="14" />
  <circle cx="128" cy="128" r="16" fill="#dbeafe" />
  <path d="M95 128h-31m159 0h-31M128 95V64m0 128v-31" fill="none" stroke="#38bdf8" stroke-linecap="round" stroke-width="10" />
  <path d="M177 79l22-22m-142 142 22-22m98 0 22 22m-142-142 22 22" fill="none" stroke="#1d4ed8" stroke-linecap="round" stroke-width="8" opacity="0.8" />
  <circle cx="199" cy="57" r="8" fill="#7dd3fc" />
  <circle cx="57" cy="199" r="8" fill="#7dd3fc" />
  <circle cx="199" cy="199" r="8" fill="#7dd3fc" />
  <path d="M166 48h22m20 18v22M70 208H48m-8-18v-22" fill="none" stroke="#7dd3fc" stroke-linecap="round" stroke-width="8" opacity="0.95" />
</svg>
